# xmcd CD database file
#
# Track frame offsets:
#	150
#	16592
#	32090
#	46620
#	56530
#	69144
#	82508
#	95719
#	105407
#	119320
#	134964
#	153602
#	168143
#	182378
#	199451
#	219004
#
# Disc length: 3140 seconds
#
# Revision: 2
# Processed by: cddbd v1.5.2PL0 Copyright (c) Steve Scherf et al.
# Submitted via: CDex 1.51
#
DISCID=c10c4210
DTITLE=Gympleri - Country pod kuzi
DYEAR=2009
DGENRE=Country
TTITLE0=Tve pohadky znam
TTITLE1=Texas u nohou
TTITLE2=Country pod kuzi
TTITLE3=Mam rad
TTITLE4=Rozhoupanej zvon
TTITLE5=Chci spat
TTITLE6=Strom v planich
TTITLE7=Hraju damou srdcovou
TTITLE8=Nikdo vedet nemusi
TTITLE9=Jeden spravny smer
TTITLE10=Ze ctyr stran
TTITLE11=Snad ses jen zmylil
TTITLE12=Procpak to rikas?
TTITLE13=V morich ostrovy
TTITLE14=Ta zenska nam vypali bar
TTITLE15=Duet (bonus)
EXTD=YEAR: 2009
EXTT0=
EXTT1=
EXTT2=
EXTT3=
EXTT4=
EXTT5=
EXTT6=
EXTT7=
EXTT8=
EXTT9=
EXTT10=
EXTT11=
EXTT12=
EXTT13=
EXTT14=
EXTT15=
PLAYORDER=
